<mxfile host="app.diagrams.net" modified="2023-04-16T12:33:33.559Z" agent="Mozilla/5.0 (Windows NT 10.0; Win64; x64) AppleWebKit/537.36 (KHTML, like Gecko) Chrome/112.0.0.0 Safari/537.36" etag="t2H69Y_Drg2sK_oe1GgL" version="21.1.8" type="github">
  <diagram name="第 1 页" id="Us5aRuaHMWOjKlmOu8--">
    <mxGraphModel dx="4261" dy="2514" grid="1" gridSize="10" guides="1" tooltips="1" connect="1" arrows="1" fold="1" page="1" pageScale="1" pageWidth="827" pageHeight="1169" math="0" shadow="0">
      <root>
        <mxCell id="0" />
        <mxCell id="1" parent="0" />
        <mxCell id="FiX9qss01vPgCwDPgq-i-93" value="" style="rounded=0;whiteSpace=wrap;html=1;" vertex="1" parent="1">
          <mxGeometry x="414" y="-320" width="346" height="225" as="geometry" />
        </mxCell>
        <mxCell id="FiX9qss01vPgCwDPgq-i-39" value="" style="rounded=0;whiteSpace=wrap;html=1;dashed=1;" vertex="1" parent="1">
          <mxGeometry x="-20" y="240" width="940" height="180" as="geometry" />
        </mxCell>
        <mxCell id="FiX9qss01vPgCwDPgq-i-37" value="" style="rounded=0;whiteSpace=wrap;html=1;dashed=1;" vertex="1" parent="1">
          <mxGeometry x="-170" y="240" width="130" height="180" as="geometry" />
        </mxCell>
        <mxCell id="FiX9qss01vPgCwDPgq-i-13" value="" style="edgeStyle=orthogonalEdgeStyle;rounded=0;orthogonalLoop=1;jettySize=auto;html=1;" edge="1" parent="1" source="FiX9qss01vPgCwDPgq-i-3" target="FiX9qss01vPgCwDPgq-i-12">
          <mxGeometry relative="1" as="geometry" />
        </mxCell>
        <mxCell id="FiX9qss01vPgCwDPgq-i-3" value="NET_RX_SOFTIRQ" style="rounded=1;whiteSpace=wrap;html=1;" vertex="1" parent="1">
          <mxGeometry y="260" width="120" height="40" as="geometry" />
        </mxCell>
        <mxCell id="FiX9qss01vPgCwDPgq-i-114" value="" style="edgeStyle=orthogonalEdgeStyle;rounded=0;orthogonalLoop=1;jettySize=auto;html=1;" edge="1" parent="1" source="FiX9qss01vPgCwDPgq-i-11" target="FiX9qss01vPgCwDPgq-i-113">
          <mxGeometry relative="1" as="geometry" />
        </mxCell>
        <mxCell id="FiX9qss01vPgCwDPgq-i-11" value="&lt;div&gt;	list_for_each_entry_rcu(ptype, &amp;amp;&lt;font color=&quot;#ff0000&quot;&gt;ptype_all&lt;/font&gt;, list) {&lt;/div&gt;&lt;div&gt;&lt;span style=&quot;&quot;&gt;&lt;/span&gt;&amp;nbsp; &amp;nbsp; if (pt_prev)&lt;/div&gt;&lt;div&gt;&lt;span style=&quot;&quot;&gt;&lt;/span&gt;&amp;nbsp; &amp;nbsp; &amp;nbsp; &amp;nbsp; ret = deliver_skb(skb, pt_prev, orig_dev);&lt;/div&gt;&lt;div&gt;&lt;span style=&quot;&quot;&gt;&lt;/span&gt;&amp;nbsp; &amp;nbsp; pt_prev = ptype;&lt;/div&gt;&lt;div&gt;&lt;span style=&quot;&quot;&gt;&lt;/span&gt;}&lt;/div&gt;&lt;div&gt;&lt;br&gt;&lt;/div&gt;&lt;div&gt;&lt;span style=&quot;&quot;&gt;	&lt;/span&gt;list_for_each_entry_rcu(ptype, &amp;amp;&lt;font color=&quot;#ff0000&quot;&gt;skb-&amp;gt;dev-&amp;gt;ptype_all&lt;/font&gt;, list) {&lt;/div&gt;&amp;nbsp; &amp;nbsp;&amp;nbsp;&lt;span style=&quot;background-color: initial;&quot;&gt;if (pt_prev)&lt;/span&gt;&lt;br&gt;&amp;nbsp; &amp;nbsp;&amp;nbsp;&amp;nbsp; &amp;nbsp;&amp;nbsp;&lt;span style=&quot;background-color: initial;&quot;&gt;ret = deliver_skb(skb, pt_prev, orig_dev);&lt;/span&gt;&lt;br&gt;&lt;div&gt;&lt;span style=&quot;&quot;&gt;&lt;/span&gt;&amp;nbsp; &amp;nbsp; pt_prev = ptype;&lt;/div&gt;&lt;div&gt;&lt;span style=&quot;&quot;&gt;	&lt;/span&gt;}&lt;/div&gt;" style="rounded=0;whiteSpace=wrap;html=1;align=left;fontFamily=Comic Sans MS;" vertex="1" parent="1">
          <mxGeometry x="60" y="20" width="360" height="170" as="geometry" />
        </mxCell>
        <mxCell id="FiX9qss01vPgCwDPgq-i-15" value="" style="edgeStyle=orthogonalEdgeStyle;rounded=0;orthogonalLoop=1;jettySize=auto;html=1;" edge="1" parent="1" source="FiX9qss01vPgCwDPgq-i-12" target="FiX9qss01vPgCwDPgq-i-14">
          <mxGeometry relative="1" as="geometry" />
        </mxCell>
        <mxCell id="FiX9qss01vPgCwDPgq-i-50" value="" style="edgeStyle=orthogonalEdgeStyle;rounded=0;orthogonalLoop=1;jettySize=auto;html=1;dashed=1;" edge="1" parent="1" source="FiX9qss01vPgCwDPgq-i-12" target="FiX9qss01vPgCwDPgq-i-11">
          <mxGeometry relative="1" as="geometry" />
        </mxCell>
        <mxCell id="FiX9qss01vPgCwDPgq-i-12" value="tcpdump" style="rounded=1;whiteSpace=wrap;html=1;fillColor=#d5e8d4;strokeColor=#82b366;" vertex="1" parent="1">
          <mxGeometry x="200" y="260" width="80" height="40" as="geometry" />
        </mxCell>
        <mxCell id="FiX9qss01vPgCwDPgq-i-17" value="" style="edgeStyle=orthogonalEdgeStyle;rounded=0;orthogonalLoop=1;jettySize=auto;html=1;" edge="1" parent="1" source="FiX9qss01vPgCwDPgq-i-14" target="FiX9qss01vPgCwDPgq-i-16">
          <mxGeometry relative="1" as="geometry" />
        </mxCell>
        <mxCell id="FiX9qss01vPgCwDPgq-i-14" value="tc ingress" style="rounded=1;whiteSpace=wrap;html=1;" vertex="1" parent="1">
          <mxGeometry x="360" y="260" width="80" height="40" as="geometry" />
        </mxCell>
        <mxCell id="FiX9qss01vPgCwDPgq-i-22" value="" style="edgeStyle=orthogonalEdgeStyle;rounded=0;orthogonalLoop=1;jettySize=auto;html=1;" edge="1" parent="1" source="FiX9qss01vPgCwDPgq-i-16" target="FiX9qss01vPgCwDPgq-i-21">
          <mxGeometry relative="1" as="geometry" />
        </mxCell>
        <mxCell id="FiX9qss01vPgCwDPgq-i-16" value="NF_NETDEV_INGRESS&lt;br&gt;（netfilter hook）" style="rounded=1;whiteSpace=wrap;html=1;" vertex="1" parent="1">
          <mxGeometry x="520" y="260" width="160" height="40" as="geometry" />
        </mxCell>
        <mxCell id="FiX9qss01vPgCwDPgq-i-48" value="" style="edgeStyle=orthogonalEdgeStyle;rounded=0;orthogonalLoop=1;jettySize=auto;html=1;dashed=1;dashPattern=8 8;" edge="1" parent="1" source="FiX9qss01vPgCwDPgq-i-21" target="FiX9qss01vPgCwDPgq-i-25">
          <mxGeometry relative="1" as="geometry" />
        </mxCell>
        <mxCell id="FiX9qss01vPgCwDPgq-i-21" value="PRE_ROUTING&lt;br&gt;（netfilter hook）" style="rounded=1;whiteSpace=wrap;html=1;" vertex="1" parent="1">
          <mxGeometry x="760" y="260" width="120" height="40" as="geometry" />
        </mxCell>
        <mxCell id="FiX9qss01vPgCwDPgq-i-24" value="" style="edgeStyle=orthogonalEdgeStyle;rounded=0;orthogonalLoop=1;jettySize=auto;html=1;exitX=1.039;exitY=0.172;exitDx=0;exitDy=0;exitPerimeter=0;" edge="1" parent="1" source="FiX9qss01vPgCwDPgq-i-23" target="FiX9qss01vPgCwDPgq-i-3">
          <mxGeometry relative="1" as="geometry">
            <Array as="points">
              <mxPoint x="-40" y="309" />
              <mxPoint x="-40" y="280" />
            </Array>
          </mxGeometry>
        </mxCell>
        <mxCell id="FiX9qss01vPgCwDPgq-i-23" value="" style="image;sketch=0;aspect=fixed;html=1;points=[];align=center;fontSize=12;image=img/lib/mscae/NetworkInterfaceCard.svg;" vertex="1" parent="1">
          <mxGeometry x="-130" y="300" width="44" height="50" as="geometry" />
        </mxCell>
        <mxCell id="FiX9qss01vPgCwDPgq-i-27" value="" style="edgeStyle=orthogonalEdgeStyle;rounded=0;orthogonalLoop=1;jettySize=auto;html=1;" edge="1" parent="1" source="FiX9qss01vPgCwDPgq-i-25" target="FiX9qss01vPgCwDPgq-i-26">
          <mxGeometry relative="1" as="geometry" />
        </mxCell>
        <mxCell id="FiX9qss01vPgCwDPgq-i-25" value="POST_ROUTING&lt;br&gt;（netfilter hook）" style="rounded=1;whiteSpace=wrap;html=1;" vertex="1" parent="1">
          <mxGeometry x="760" y="360" width="120" height="40" as="geometry" />
        </mxCell>
        <mxCell id="FiX9qss01vPgCwDPgq-i-29" value="" style="edgeStyle=orthogonalEdgeStyle;rounded=0;orthogonalLoop=1;jettySize=auto;html=1;" edge="1" parent="1" source="FiX9qss01vPgCwDPgq-i-26" target="FiX9qss01vPgCwDPgq-i-28">
          <mxGeometry relative="1" as="geometry" />
        </mxCell>
        <mxCell id="FiX9qss01vPgCwDPgq-i-26" value="NF_NETDEV_EGRESS&lt;br style=&quot;border-color: var(--border-color);&quot;&gt;（netfilter hook）" style="rounded=1;whiteSpace=wrap;html=1;" vertex="1" parent="1">
          <mxGeometry x="520" y="360" width="160" height="40" as="geometry" />
        </mxCell>
        <mxCell id="FiX9qss01vPgCwDPgq-i-31" value="" style="edgeStyle=orthogonalEdgeStyle;rounded=0;orthogonalLoop=1;jettySize=auto;html=1;" edge="1" parent="1" source="FiX9qss01vPgCwDPgq-i-28" target="FiX9qss01vPgCwDPgq-i-30">
          <mxGeometry relative="1" as="geometry" />
        </mxCell>
        <mxCell id="FiX9qss01vPgCwDPgq-i-28" value="tc egress" style="rounded=1;whiteSpace=wrap;html=1;" vertex="1" parent="1">
          <mxGeometry x="360" y="360" width="80" height="40" as="geometry" />
        </mxCell>
        <mxCell id="FiX9qss01vPgCwDPgq-i-34" value="" style="edgeStyle=orthogonalEdgeStyle;rounded=0;orthogonalLoop=1;jettySize=auto;html=1;" edge="1" parent="1" source="FiX9qss01vPgCwDPgq-i-30" target="FiX9qss01vPgCwDPgq-i-33">
          <mxGeometry relative="1" as="geometry" />
        </mxCell>
        <mxCell id="FiX9qss01vPgCwDPgq-i-51" value="" style="edgeStyle=orthogonalEdgeStyle;rounded=0;orthogonalLoop=1;jettySize=auto;html=1;dashed=1;" edge="1" parent="1" source="FiX9qss01vPgCwDPgq-i-30" target="FiX9qss01vPgCwDPgq-i-32">
          <mxGeometry relative="1" as="geometry" />
        </mxCell>
        <mxCell id="FiX9qss01vPgCwDPgq-i-30" value="tcpdump" style="rounded=1;whiteSpace=wrap;html=1;fillColor=#d5e8d4;strokeColor=#82b366;" vertex="1" parent="1">
          <mxGeometry x="200" y="360" width="80" height="40" as="geometry" />
        </mxCell>
        <mxCell id="FiX9qss01vPgCwDPgq-i-32" value="&lt;div&gt;if (dev_nit_active(dev))&lt;/div&gt;&lt;div&gt;&amp;nbsp; &amp;nbsp; dev_queue_xmit_nit(skb, dev);&lt;/div&gt;" style="rounded=0;whiteSpace=wrap;html=1;align=left;fontFamily=Comic Sans MS;" vertex="1" parent="1">
          <mxGeometry x="140" y="470" width="200" height="50" as="geometry" />
        </mxCell>
        <mxCell id="FiX9qss01vPgCwDPgq-i-35" value="" style="edgeStyle=orthogonalEdgeStyle;rounded=0;orthogonalLoop=1;jettySize=auto;html=1;entryX=1.008;entryY=0.834;entryDx=0;entryDy=0;entryPerimeter=0;" edge="1" parent="1" source="FiX9qss01vPgCwDPgq-i-33" target="FiX9qss01vPgCwDPgq-i-23">
          <mxGeometry relative="1" as="geometry">
            <Array as="points">
              <mxPoint x="-40" y="380" />
              <mxPoint x="-40" y="342" />
            </Array>
          </mxGeometry>
        </mxCell>
        <mxCell id="FiX9qss01vPgCwDPgq-i-33" value="NET_TX_SOFTIRQ" style="rounded=1;whiteSpace=wrap;html=1;" vertex="1" parent="1">
          <mxGeometry y="360" width="120" height="40" as="geometry" />
        </mxCell>
        <mxCell id="FiX9qss01vPgCwDPgq-i-38" value="hardware" style="text;html=1;strokeColor=none;fillColor=none;align=center;verticalAlign=middle;whiteSpace=wrap;rounded=0;" vertex="1" parent="1">
          <mxGeometry x="-130" y="210" width="60" height="30" as="geometry" />
        </mxCell>
        <mxCell id="FiX9qss01vPgCwDPgq-i-40" value="kernel space" style="text;html=1;strokeColor=none;fillColor=none;align=center;verticalAlign=middle;whiteSpace=wrap;rounded=0;" vertex="1" parent="1">
          <mxGeometry x="400" y="210" width="100" height="30" as="geometry" />
        </mxCell>
        <mxCell id="FiX9qss01vPgCwDPgq-i-42" value="" style="rounded=0;whiteSpace=wrap;html=1;dashed=1;" vertex="1" parent="1">
          <mxGeometry x="960" y="240" width="130" height="180" as="geometry" />
        </mxCell>
        <mxCell id="FiX9qss01vPgCwDPgq-i-43" value="user space" style="text;html=1;strokeColor=none;fillColor=none;align=center;verticalAlign=middle;whiteSpace=wrap;rounded=0;" vertex="1" parent="1">
          <mxGeometry x="975" y="210" width="100" height="30" as="geometry" />
        </mxCell>
        <mxCell id="FiX9qss01vPgCwDPgq-i-46" value="" style="endArrow=classic;html=1;rounded=0;exitX=1;exitY=0.5;exitDx=0;exitDy=0;" edge="1" parent="1" source="FiX9qss01vPgCwDPgq-i-21">
          <mxGeometry width="50" height="50" relative="1" as="geometry">
            <mxPoint x="910" y="370" as="sourcePoint" />
            <mxPoint x="960" y="280" as="targetPoint" />
          </mxGeometry>
        </mxCell>
        <mxCell id="FiX9qss01vPgCwDPgq-i-47" value="" style="endArrow=classic;html=1;rounded=0;exitX=0;exitY=0.778;exitDx=0;exitDy=0;entryX=1;entryY=0.5;entryDx=0;entryDy=0;exitPerimeter=0;" edge="1" parent="1" source="FiX9qss01vPgCwDPgq-i-42" target="FiX9qss01vPgCwDPgq-i-25">
          <mxGeometry width="50" height="50" relative="1" as="geometry">
            <mxPoint x="890" y="290" as="sourcePoint" />
            <mxPoint x="968" y="290" as="targetPoint" />
          </mxGeometry>
        </mxCell>
        <mxCell id="FiX9qss01vPgCwDPgq-i-49" value="forward" style="text;html=1;strokeColor=none;fillColor=none;align=center;verticalAlign=middle;whiteSpace=wrap;rounded=0;" vertex="1" parent="1">
          <mxGeometry x="820" y="315" width="60" height="30" as="geometry" />
        </mxCell>
        <mxCell id="FiX9qss01vPgCwDPgq-i-76" value="" style="edgeStyle=orthogonalEdgeStyle;rounded=0;orthogonalLoop=1;jettySize=auto;html=1;" edge="1" parent="1" source="FiX9qss01vPgCwDPgq-i-52" target="FiX9qss01vPgCwDPgq-i-75">
          <mxGeometry relative="1" as="geometry" />
        </mxCell>
        <mxCell id="FiX9qss01vPgCwDPgq-i-52" value="socket" style="rounded=0;whiteSpace=wrap;html=1;align=center;fontFamily=Comic Sans MS;fillColor=#fff2cc;strokeColor=#d6b656;" vertex="1" parent="1">
          <mxGeometry x="-732" y="-260" width="80" height="40" as="geometry" />
        </mxCell>
        <mxCell id="FiX9qss01vPgCwDPgq-i-53" value="PF_INET" style="rounded=0;whiteSpace=wrap;html=1;align=left;fontFamily=Comic Sans MS;" vertex="1" parent="1">
          <mxGeometry x="-606" y="-536.5" width="80" height="40" as="geometry" />
        </mxCell>
        <mxCell id="FiX9qss01vPgCwDPgq-i-54" value="net_proto_family" style="swimlane;fontStyle=0;childLayout=stackLayout;horizontal=1;startSize=26;fillColor=none;horizontalStack=0;resizeParent=1;resizeParentMax=0;resizeLast=0;collapsible=1;marginBottom=0;whiteSpace=wrap;html=1;fontFamily=Comic Sans MS;" vertex="1" parent="1">
          <mxGeometry x="-846" y="-600" width="140" height="104" as="geometry" />
        </mxCell>
        <mxCell id="FiX9qss01vPgCwDPgq-i-55" value="+&amp;nbsp;family" style="text;strokeColor=none;fillColor=none;align=left;verticalAlign=top;spacingLeft=4;spacingRight=4;overflow=hidden;rotatable=0;points=[[0,0.5],[1,0.5]];portConstraint=eastwest;whiteSpace=wrap;html=1;fontFamily=Comic Sans MS;" vertex="1" parent="FiX9qss01vPgCwDPgq-i-54">
          <mxGeometry y="26" width="140" height="26" as="geometry" />
        </mxCell>
        <mxCell id="FiX9qss01vPgCwDPgq-i-56" value="+ (*create)(...)" style="text;strokeColor=none;fillColor=none;align=left;verticalAlign=top;spacingLeft=4;spacingRight=4;overflow=hidden;rotatable=0;points=[[0,0.5],[1,0.5]];portConstraint=eastwest;whiteSpace=wrap;html=1;fontFamily=Comic Sans MS;" vertex="1" parent="FiX9qss01vPgCwDPgq-i-54">
          <mxGeometry y="52" width="140" height="26" as="geometry" />
        </mxCell>
        <mxCell id="FiX9qss01vPgCwDPgq-i-57" value="+ *owner" style="text;strokeColor=none;fillColor=none;align=left;verticalAlign=top;spacingLeft=4;spacingRight=4;overflow=hidden;rotatable=0;points=[[0,0.5],[1,0.5]];portConstraint=eastwest;whiteSpace=wrap;html=1;fontFamily=Comic Sans MS;" vertex="1" parent="FiX9qss01vPgCwDPgq-i-54">
          <mxGeometry y="78" width="140" height="26" as="geometry" />
        </mxCell>
        <mxCell id="FiX9qss01vPgCwDPgq-i-66" value="" style="edgeStyle=orthogonalEdgeStyle;rounded=0;orthogonalLoop=1;jettySize=auto;html=1;entryX=0;entryY=0.144;entryDx=0;entryDy=0;entryPerimeter=0;" edge="1" parent="1" source="FiX9qss01vPgCwDPgq-i-58" target="FiX9qss01vPgCwDPgq-i-54">
          <mxGeometry relative="1" as="geometry">
            <Array as="points">
              <mxPoint x="-886" y="-585" />
              <mxPoint x="-886" y="-585" />
            </Array>
          </mxGeometry>
        </mxCell>
        <mxCell id="FiX9qss01vPgCwDPgq-i-58" value="*net_families[NPROTO]" style="text;html=1;strokeColor=none;fillColor=none;align=center;verticalAlign=middle;whiteSpace=wrap;rounded=0;fontFamily=Comic Sans MS;" vertex="1" parent="1">
          <mxGeometry x="-1076" y="-600" width="150" height="30" as="geometry" />
        </mxCell>
        <mxCell id="FiX9qss01vPgCwDPgq-i-63" value="..." style="rounded=0;whiteSpace=wrap;html=1;align=center;fontFamily=Comic Sans MS;" vertex="1" parent="1">
          <mxGeometry x="-846" y="-496" width="140" height="26" as="geometry" />
        </mxCell>
        <mxCell id="FiX9qss01vPgCwDPgq-i-65" value="..." style="rounded=0;whiteSpace=wrap;html=1;align=center;fontFamily=Comic Sans MS;" vertex="1" parent="1">
          <mxGeometry x="-846" y="-470" width="140" height="26" as="geometry" />
        </mxCell>
        <mxCell id="FiX9qss01vPgCwDPgq-i-67" value="*net_proto_family" style="rounded=0;whiteSpace=wrap;html=1;align=center;fontFamily=Comic Sans MS;" vertex="1" parent="1">
          <mxGeometry x="-846" y="-418" width="140" height="26" as="geometry" />
        </mxCell>
        <mxCell id="FiX9qss01vPgCwDPgq-i-68" value="*net_proto_family" style="rounded=0;whiteSpace=wrap;html=1;align=center;fontFamily=Comic Sans MS;" vertex="1" parent="1">
          <mxGeometry x="-846" y="-444" width="140" height="26" as="geometry" />
        </mxCell>
        <mxCell id="FiX9qss01vPgCwDPgq-i-70" value="PF_NETLINK" style="rounded=0;whiteSpace=wrap;html=1;align=left;fontFamily=Comic Sans MS;" vertex="1" parent="1">
          <mxGeometry x="-606" y="-476.5" width="80" height="40" as="geometry" />
        </mxCell>
        <mxCell id="FiX9qss01vPgCwDPgq-i-72" value="" style="endArrow=classic;html=1;rounded=0;entryX=0;entryY=0.5;entryDx=0;entryDy=0;exitX=1;exitY=0.5;exitDx=0;exitDy=0;" edge="1" parent="1" source="FiX9qss01vPgCwDPgq-i-63" target="FiX9qss01vPgCwDPgq-i-53">
          <mxGeometry width="50" height="50" relative="1" as="geometry">
            <mxPoint x="-806" y="-290" as="sourcePoint" />
            <mxPoint x="-756" y="-340" as="targetPoint" />
          </mxGeometry>
        </mxCell>
        <mxCell id="FiX9qss01vPgCwDPgq-i-73" value="" style="endArrow=classic;html=1;rounded=0;entryX=0;entryY=0.5;entryDx=0;entryDy=0;exitX=1;exitY=0.5;exitDx=0;exitDy=0;" edge="1" parent="1" source="FiX9qss01vPgCwDPgq-i-65" target="FiX9qss01vPgCwDPgq-i-70">
          <mxGeometry width="50" height="50" relative="1" as="geometry">
            <mxPoint x="-696" y="-473" as="sourcePoint" />
            <mxPoint x="-596" y="-506" as="targetPoint" />
          </mxGeometry>
        </mxCell>
        <mxCell id="FiX9qss01vPgCwDPgq-i-74" value="" style="endArrow=classic;html=1;rounded=0;entryX=0;entryY=0.5;entryDx=0;entryDy=0;exitX=1;exitY=0.5;exitDx=0;exitDy=0;" edge="1" parent="1" source="FiX9qss01vPgCwDPgq-i-68" target="FiX9qss01vPgCwDPgq-i-110">
          <mxGeometry width="50" height="50" relative="1" as="geometry">
            <mxPoint x="-696" y="-447" as="sourcePoint" />
            <mxPoint x="-606" y="-397.5" as="targetPoint" />
          </mxGeometry>
        </mxCell>
        <mxCell id="FiX9qss01vPgCwDPgq-i-75" value="pf-&amp;gt;create(...)" style="rounded=0;whiteSpace=wrap;html=1;align=center;fontFamily=Comic Sans MS;" vertex="1" parent="1">
          <mxGeometry x="-572" y="-260" width="100" height="40" as="geometry" />
        </mxCell>
        <mxCell id="FiX9qss01vPgCwDPgq-i-80" value="" style="edgeStyle=orthogonalEdgeStyle;rounded=0;orthogonalLoop=1;jettySize=auto;html=1;exitX=1;exitY=0.5;exitDx=0;exitDy=0;" edge="1" parent="1" source="FiX9qss01vPgCwDPgq-i-75" target="FiX9qss01vPgCwDPgq-i-79">
          <mxGeometry relative="1" as="geometry">
            <mxPoint x="-472" y="-240" as="sourcePoint" />
          </mxGeometry>
        </mxCell>
        <mxCell id="FiX9qss01vPgCwDPgq-i-82" value="" style="edgeStyle=orthogonalEdgeStyle;rounded=0;orthogonalLoop=1;jettySize=auto;html=1;" edge="1" parent="1" source="FiX9qss01vPgCwDPgq-i-79" target="FiX9qss01vPgCwDPgq-i-81">
          <mxGeometry relative="1" as="geometry" />
        </mxCell>
        <mxCell id="FiX9qss01vPgCwDPgq-i-79" value="packet_create" style="rounded=0;whiteSpace=wrap;html=1;align=center;fontFamily=Comic Sans MS;" vertex="1" parent="1">
          <mxGeometry x="-392" y="-260" width="100" height="40" as="geometry" />
        </mxCell>
        <mxCell id="FiX9qss01vPgCwDPgq-i-103" value="" style="edgeStyle=orthogonalEdgeStyle;rounded=0;orthogonalLoop=1;jettySize=auto;html=1;entryX=0;entryY=0.5;entryDx=0;entryDy=0;" edge="1" parent="1" source="FiX9qss01vPgCwDPgq-i-81" target="FiX9qss01vPgCwDPgq-i-93">
          <mxGeometry relative="1" as="geometry">
            <mxPoint x="220" y="-240" as="targetPoint" />
            <Array as="points">
              <mxPoint x="344" y="-240" />
              <mxPoint x="344" y="-207" />
            </Array>
          </mxGeometry>
        </mxCell>
        <mxCell id="FiX9qss01vPgCwDPgq-i-81" value="__register_prot_hook" style="rounded=0;whiteSpace=wrap;html=1;align=center;fontFamily=Comic Sans MS;" vertex="1" parent="1">
          <mxGeometry x="4" y="-260" width="136" height="40" as="geometry" />
        </mxCell>
        <mxCell id="FiX9qss01vPgCwDPgq-i-83" value="if proto" style="text;html=1;strokeColor=none;fillColor=none;align=center;verticalAlign=middle;whiteSpace=wrap;rounded=0;fontFamily=Comic Sans MS;" vertex="1" parent="1">
          <mxGeometry x="-286" y="-270" width="60" height="30" as="geometry" />
        </mxCell>
        <mxCell id="FiX9qss01vPgCwDPgq-i-84" value="pt-&amp;gt;dev-&amp;gt;ptype_all" style="rounded=0;whiteSpace=wrap;html=1;align=center;fontFamily=Comic Sans MS;" vertex="1" parent="1">
          <mxGeometry x="595" y="-295" width="136" height="40" as="geometry" />
        </mxCell>
        <mxCell id="FiX9qss01vPgCwDPgq-i-85" value="ptype_all" style="rounded=0;whiteSpace=wrap;html=1;align=center;fontFamily=Comic Sans MS;" vertex="1" parent="1">
          <mxGeometry x="595" y="-225" width="136" height="40" as="geometry" />
        </mxCell>
        <mxCell id="FiX9qss01vPgCwDPgq-i-86" value="ptype_base" style="rounded=0;whiteSpace=wrap;html=1;align=center;fontFamily=Comic Sans MS;" vertex="1" parent="1">
          <mxGeometry x="595" y="-155" width="136" height="40" as="geometry" />
        </mxCell>
        <mxCell id="FiX9qss01vPgCwDPgq-i-87" value="" style="endArrow=classic;html=1;rounded=0;entryX=0;entryY=0.5;entryDx=0;entryDy=0;" edge="1" parent="1" target="FiX9qss01vPgCwDPgq-i-84">
          <mxGeometry width="50" height="50" relative="1" as="geometry">
            <mxPoint x="430" y="-275" as="sourcePoint" />
            <mxPoint x="410" y="-255" as="targetPoint" />
          </mxGeometry>
        </mxCell>
        <mxCell id="FiX9qss01vPgCwDPgq-i-88" value="ETH_P_ALL &amp;amp;&amp;amp; pt-&amp;gt;dev" style="text;html=1;strokeColor=none;fillColor=none;align=center;verticalAlign=middle;whiteSpace=wrap;rounded=0;fontFamily=Comic Sans MS;" vertex="1" parent="1">
          <mxGeometry x="444" y="-305" width="136" height="30" as="geometry" />
        </mxCell>
        <mxCell id="FiX9qss01vPgCwDPgq-i-89" value="" style="endArrow=classic;html=1;rounded=0;entryX=0;entryY=0.5;entryDx=0;entryDy=0;" edge="1" parent="1" target="FiX9qss01vPgCwDPgq-i-85">
          <mxGeometry width="50" height="50" relative="1" as="geometry">
            <mxPoint x="430" y="-205" as="sourcePoint" />
            <mxPoint x="595" y="-207" as="targetPoint" />
          </mxGeometry>
        </mxCell>
        <mxCell id="FiX9qss01vPgCwDPgq-i-90" value="ETH_P_ALL" style="text;html=1;strokeColor=none;fillColor=none;align=center;verticalAlign=middle;whiteSpace=wrap;rounded=0;fontFamily=Comic Sans MS;" vertex="1" parent="1">
          <mxGeometry x="444" y="-237" width="136" height="30" as="geometry" />
        </mxCell>
        <mxCell id="FiX9qss01vPgCwDPgq-i-91" value="" style="endArrow=classic;html=1;rounded=0;" edge="1" parent="1" target="FiX9qss01vPgCwDPgq-i-86">
          <mxGeometry width="50" height="50" relative="1" as="geometry">
            <mxPoint x="430" y="-135" as="sourcePoint" />
            <mxPoint x="595" y="-133" as="targetPoint" />
          </mxGeometry>
        </mxCell>
        <mxCell id="FiX9qss01vPgCwDPgq-i-92" value="not ETH_P_ALL" style="text;html=1;strokeColor=none;fillColor=none;align=center;verticalAlign=middle;whiteSpace=wrap;rounded=0;fontFamily=Comic Sans MS;" vertex="1" parent="1">
          <mxGeometry x="444" y="-165" width="136" height="30" as="geometry" />
        </mxCell>
        <mxCell id="FiX9qss01vPgCwDPgq-i-94" value="" style="edgeStyle=orthogonalEdgeStyle;rounded=0;orthogonalLoop=1;jettySize=auto;html=1;" edge="1" parent="1" source="FiX9qss01vPgCwDPgq-i-95" target="FiX9qss01vPgCwDPgq-i-96">
          <mxGeometry relative="1" as="geometry" />
        </mxCell>
        <mxCell id="FiX9qss01vPgCwDPgq-i-95" value="bind" style="rounded=0;whiteSpace=wrap;html=1;align=center;fontFamily=Comic Sans MS;fillColor=#fff2cc;strokeColor=#d6b656;" vertex="1" parent="1">
          <mxGeometry x="-732" y="-180" width="80" height="40" as="geometry" />
        </mxCell>
        <mxCell id="FiX9qss01vPgCwDPgq-i-96" value="sock-&amp;gt;ops-&amp;gt;bind(...)" style="rounded=0;whiteSpace=wrap;html=1;align=center;fontFamily=Comic Sans MS;" vertex="1" parent="1">
          <mxGeometry x="-576" y="-180" width="110" height="40" as="geometry" />
        </mxCell>
        <mxCell id="FiX9qss01vPgCwDPgq-i-97" value="" style="edgeStyle=orthogonalEdgeStyle;rounded=0;orthogonalLoop=1;jettySize=auto;html=1;exitX=1;exitY=0.5;exitDx=0;exitDy=0;" edge="1" parent="1" source="FiX9qss01vPgCwDPgq-i-96" target="FiX9qss01vPgCwDPgq-i-99">
          <mxGeometry relative="1" as="geometry">
            <mxPoint x="-472" y="-160" as="sourcePoint" />
          </mxGeometry>
        </mxCell>
        <mxCell id="FiX9qss01vPgCwDPgq-i-98" value="" style="edgeStyle=orthogonalEdgeStyle;rounded=0;orthogonalLoop=1;jettySize=auto;html=1;" edge="1" parent="1" source="FiX9qss01vPgCwDPgq-i-99" target="FiX9qss01vPgCwDPgq-i-100">
          <mxGeometry relative="1" as="geometry" />
        </mxCell>
        <mxCell id="FiX9qss01vPgCwDPgq-i-99" value="packet_bind" style="rounded=0;whiteSpace=wrap;html=1;align=center;fontFamily=Comic Sans MS;" vertex="1" parent="1">
          <mxGeometry x="-392" y="-180" width="100" height="40" as="geometry" />
        </mxCell>
        <mxCell id="FiX9qss01vPgCwDPgq-i-105" value="" style="edgeStyle=orthogonalEdgeStyle;rounded=0;orthogonalLoop=1;jettySize=auto;html=1;entryX=0;entryY=0.5;entryDx=0;entryDy=0;" edge="1" parent="1" source="FiX9qss01vPgCwDPgq-i-100" target="FiX9qss01vPgCwDPgq-i-93">
          <mxGeometry relative="1" as="geometry">
            <mxPoint x="220" y="-160" as="targetPoint" />
            <Array as="points">
              <mxPoint x="344" y="-160" />
              <mxPoint x="344" y="-207" />
            </Array>
          </mxGeometry>
        </mxCell>
        <mxCell id="FiX9qss01vPgCwDPgq-i-100" value="register_prot_hook" style="rounded=0;whiteSpace=wrap;html=1;align=center;fontFamily=Comic Sans MS;" vertex="1" parent="1">
          <mxGeometry x="4" y="-180" width="136" height="40" as="geometry" />
        </mxCell>
        <mxCell id="FiX9qss01vPgCwDPgq-i-101" value="if (!unlisted &amp;amp;&amp;amp; (!dev || (dev-&amp;gt;flags &amp;amp; IFF_UP)))" style="text;html=1;strokeColor=none;fillColor=none;align=center;verticalAlign=middle;whiteSpace=wrap;rounded=0;fontFamily=Comic Sans MS;" vertex="1" parent="1">
          <mxGeometry x="-292" y="-195" width="296" height="30" as="geometry" />
        </mxCell>
        <mxCell id="FiX9qss01vPgCwDPgq-i-106" value="po-&amp;gt;prot_hook.func = &lt;b style=&quot;&quot;&gt;&lt;i style=&quot;&quot;&gt;packet_rcv&lt;/i&gt;&lt;/b&gt;;" style="text;html=1;strokeColor=none;fillColor=none;align=center;verticalAlign=middle;whiteSpace=wrap;rounded=0;fontFamily=Comic Sans MS;" vertex="1" parent="1">
          <mxGeometry x="134" y="-215" width="210" height="30" as="geometry" />
        </mxCell>
        <mxCell id="FiX9qss01vPgCwDPgq-i-107" value="&lt;div&gt;static const struct proto_ops packet_ops = {&lt;/div&gt;&lt;div&gt;	&lt;span style=&quot;white-space: pre;&quot;&gt;	&lt;/span&gt;.family =&lt;span style=&quot;&quot;&gt;	&lt;/span&gt;PF_PACKET,&lt;/div&gt;&lt;div&gt;&lt;span style=&quot;&quot;&gt;	&lt;/span&gt;&lt;span style=&quot;white-space: pre;&quot;&gt;	&lt;/span&gt;.bind =&lt;span style=&quot;&quot;&gt;		&lt;/span&gt;packet_bind,&lt;/div&gt;&lt;div&gt;&lt;span style=&quot;white-space: pre;&quot;&gt;	&lt;/span&gt;...&lt;/div&gt;&lt;div&gt;};&lt;br&gt;&lt;/div&gt;" style="rounded=0;whiteSpace=wrap;html=1;align=left;fontFamily=Comic Sans MS;" vertex="1" parent="1">
          <mxGeometry x="-566" y="-70" width="260" height="80" as="geometry" />
        </mxCell>
        <mxCell id="FiX9qss01vPgCwDPgq-i-109" value="" style="endArrow=classic;html=1;rounded=0;exitX=0.5;exitY=0;exitDx=0;exitDy=0;dashed=1;" edge="1" parent="1" source="FiX9qss01vPgCwDPgq-i-107">
          <mxGeometry width="50" height="50" relative="1" as="geometry">
            <mxPoint x="-476" y="110" as="sourcePoint" />
            <mxPoint x="-436" y="-160" as="targetPoint" />
          </mxGeometry>
        </mxCell>
        <mxCell id="FiX9qss01vPgCwDPgq-i-110" value="&lt;div&gt;&lt;div&gt;static const struct net_proto_family packet_family_ops = {&lt;/div&gt;&lt;div&gt;	&lt;span style=&quot;white-space: pre;&quot;&gt;	&lt;/span&gt;.family =&lt;span style=&quot;&quot;&gt;	&lt;/span&gt;PF_PACKET,&lt;/div&gt;&lt;div&gt;&lt;span style=&quot;&quot;&gt;	&lt;/span&gt;&lt;span style=&quot;white-space: pre;&quot;&gt;	&lt;/span&gt;.create =&lt;span style=&quot;&quot;&gt;	&lt;/span&gt;packet_create,&lt;/div&gt;&lt;div&gt;&lt;span style=&quot;&quot;&gt;	&lt;/span&gt;&lt;span style=&quot;white-space: pre;&quot;&gt;	&lt;/span&gt;.owner&lt;span style=&quot;&quot;&gt;	&lt;/span&gt;=&lt;span style=&quot;&quot;&gt;	&lt;/span&gt;THIS_MODULE,&lt;/div&gt;&lt;div&gt;};&lt;/div&gt;&lt;/div&gt;" style="rounded=0;whiteSpace=wrap;html=1;align=left;fontFamily=Comic Sans MS;" vertex="1" parent="1">
          <mxGeometry x="-606" y="-415" width="340" height="80" as="geometry" />
        </mxCell>
        <mxCell id="FiX9qss01vPgCwDPgq-i-112" value="" style="endArrow=classic;html=1;rounded=0;dashed=1;" edge="1" parent="1" source="FiX9qss01vPgCwDPgq-i-110">
          <mxGeometry width="50" height="50" relative="1" as="geometry">
            <mxPoint x="-346" y="-280" as="sourcePoint" />
            <mxPoint x="-436" y="-240" as="targetPoint" />
          </mxGeometry>
        </mxCell>
        <mxCell id="FiX9qss01vPgCwDPgq-i-116" value="" style="edgeStyle=orthogonalEdgeStyle;rounded=0;orthogonalLoop=1;jettySize=auto;html=1;" edge="1" parent="1" source="FiX9qss01vPgCwDPgq-i-113" target="FiX9qss01vPgCwDPgq-i-115">
          <mxGeometry relative="1" as="geometry" />
        </mxCell>
        <mxCell id="FiX9qss01vPgCwDPgq-i-113" value="deliver_skb" style="rounded=0;whiteSpace=wrap;html=1;align=center;fontFamily=Comic Sans MS;" vertex="1" parent="1">
          <mxGeometry x="500" y="90" width="90" height="30" as="geometry" />
        </mxCell>
        <mxCell id="FiX9qss01vPgCwDPgq-i-122" value="" style="edgeStyle=orthogonalEdgeStyle;rounded=0;orthogonalLoop=1;jettySize=auto;html=1;" edge="1" parent="1" source="FiX9qss01vPgCwDPgq-i-115" target="FiX9qss01vPgCwDPgq-i-121">
          <mxGeometry relative="1" as="geometry" />
        </mxCell>
        <mxCell id="FiX9qss01vPgCwDPgq-i-115" value="&lt;b&gt;packet_rcv&lt;/b&gt;" style="rounded=0;whiteSpace=wrap;html=1;align=center;fontFamily=Comic Sans MS;fontStyle=2" vertex="1" parent="1">
          <mxGeometry x="670" y="90" width="90" height="30" as="geometry" />
        </mxCell>
        <mxCell id="FiX9qss01vPgCwDPgq-i-121" value="&lt;font style=&quot;font-size: 14px;&quot;&gt;run_filter(...);&lt;br style=&quot;font-size: 14px;&quot;&gt;skb_clone(...);&lt;br style=&quot;font-size: 14px;&quot;&gt;__skb_queue_tail(&amp;amp;sk-&amp;gt;sk_receive_queue, skb);&lt;br style=&quot;font-size: 14px;&quot;&gt;&lt;/font&gt;" style="rounded=0;whiteSpace=wrap;html=1;align=left;fontFamily=Comic Sans MS;fontColor=#000000;fontSize=14;" vertex="1" parent="1">
          <mxGeometry x="840" y="70" width="330" height="70" as="geometry" />
        </mxCell>
      </root>
    </mxGraphModel>
  </diagram>
</mxfile>
